<svg width="188" height="164" viewBox="0 0 188 164" fill="none" xmlns="http://www.w3.org/2000/svg">
<path d="M33.5 124.024V52.5243L68.5 23.5243V114.024H88.5V1.02433C88.5 -0.175671 114.5 21.191 127.5 32.0243V114.024H144V44.5243L154.5 52.5243V124.024H117.5V37.0243L98.5 23.5243V124.024H58V47.5243L43.5 58.5243V124.024H33.5Z" fill="#2F6ED9" stroke="#2F6ED9"/>
<path d="M5.58 141.424H24.78V138.224H5.58V141.424ZM22.5 127.024V155.024H25.9V127.024H22.5ZM3.7 127.024V155.024H7.1V127.024H3.7ZM30.4938 145.824C30.4938 147.664 30.9071 149.318 31.7337 150.784C32.5871 152.224 33.7338 153.358 35.1738 154.184C36.6138 155.011 38.2271 155.424 40.0138 155.424C41.8271 155.424 43.4404 155.011 44.8538 154.184C46.2938 153.358 47.4271 152.224 48.2538 150.784C49.1071 149.318 49.5338 147.664 49.5338 145.824C49.5338 143.958 49.1071 142.304 48.2538 140.864C47.4271 139.424 46.2938 138.291 44.8538 137.464C43.4404 136.638 41.8271 136.224 40.0138 136.224C38.2271 136.224 36.6138 136.638 35.1738 137.464C33.7338 138.291 32.5871 139.424 31.7337 140.864C30.9071 142.304 30.4938 143.958 30.4938 145.824ZM33.7338 145.824C33.7338 144.544 34.0004 143.411 34.5338 142.424C35.0938 141.411 35.8404 140.624 36.7738 140.064C37.7338 139.504 38.8138 139.224 40.0138 139.224C41.2138 139.224 42.2804 139.504 43.2138 140.064C44.1738 140.624 44.9204 141.411 45.4538 142.424C46.0138 143.411 46.2938 144.544 46.2938 145.824C46.2938 147.104 46.0138 148.238 45.4538 149.224C44.9204 150.211 44.1738 150.998 43.2138 151.584C42.2804 152.144 41.2138 152.424 40.0138 152.424C38.8138 152.424 37.7338 152.144 36.7738 151.584C35.8404 150.998 35.0938 150.211 34.5338 149.224C34.0004 148.238 33.7338 147.104 33.7338 145.824ZM57.1297 147.824V136.624H53.9297V148.224C53.9297 150.411 54.503 152.158 55.6497 153.464C56.7964 154.771 58.3297 155.424 60.2497 155.424C61.4764 155.424 62.543 155.158 63.4497 154.624C64.3564 154.064 65.1164 153.238 65.7297 152.144V155.024H68.9297V136.624H65.7297V147.824C65.7297 148.731 65.5297 149.531 65.1297 150.224C64.7564 150.918 64.2097 151.464 63.4897 151.864C62.7964 152.238 61.983 152.424 61.0497 152.424C59.7697 152.424 58.7964 152.024 58.1297 151.224C57.463 150.424 57.1297 149.291 57.1297 147.824ZM75.7053 149.384L73.1853 150.944C73.532 151.664 74.0386 152.371 74.7053 153.064C75.3986 153.758 76.2386 154.331 77.2253 154.784C78.212 155.211 79.3186 155.424 80.5453 155.424C82.4386 155.424 83.9586 154.891 85.1053 153.824C86.2786 152.758 86.8653 151.424 86.8653 149.824C86.8653 148.731 86.5986 147.838 86.0653 147.144C85.5586 146.451 84.8653 145.864 83.9853 145.384C83.1053 144.878 82.132 144.411 81.0653 143.984C80.4253 143.718 79.812 143.438 79.2253 143.144C78.6386 142.851 78.1586 142.518 77.7853 142.144C77.412 141.771 77.2253 141.344 77.2253 140.864C77.2253 140.251 77.4653 139.798 77.9453 139.504C78.4253 139.211 78.9986 139.064 79.6653 139.064C80.6253 139.064 81.4786 139.291 82.2253 139.744C82.9986 140.198 83.6386 140.771 84.1453 141.464L86.7053 139.824C86.332 139.131 85.812 138.518 85.1453 137.984C84.4786 137.451 83.7053 137.024 82.8253 136.704C81.972 136.384 81.052 136.224 80.0653 136.224C79.0786 136.224 78.1186 136.398 77.1853 136.744C76.2786 137.091 75.532 137.624 74.9453 138.344C74.3853 139.064 74.1053 139.971 74.1053 141.064C74.1053 142.131 74.372 143.024 74.9053 143.744C75.4653 144.438 76.1453 145.011 76.9453 145.464C77.772 145.891 78.5853 146.264 79.3853 146.584C80.1053 146.851 80.7853 147.144 81.4253 147.464C82.0653 147.758 82.5853 148.131 82.9853 148.584C83.412 149.011 83.6253 149.544 83.6253 150.184C83.6253 150.904 83.3586 151.478 82.8253 151.904C82.3186 152.304 81.612 152.504 80.7053 152.504C79.9586 152.504 79.2653 152.371 78.6253 152.104C78.012 151.811 77.4653 151.424 76.9853 150.944C76.5053 150.464 76.0786 149.944 75.7053 149.384ZM98.1981 155.424C100.171 155.424 101.878 155.038 103.318 154.264C104.785 153.464 105.998 152.291 106.958 150.744L104.358 149.104C103.691 150.224 102.878 151.064 101.918 151.624C100.958 152.158 99.8515 152.424 98.5981 152.424C97.3448 152.424 96.2781 152.158 95.3981 151.624C94.5181 151.091 93.8515 150.318 93.3981 149.304C92.9448 148.291 92.7181 147.064 92.7181 145.624C92.7448 144.211 92.9848 143.024 93.4381 142.064C93.9181 141.078 94.5848 140.331 95.4381 139.824C96.3181 139.291 97.3715 139.024 98.5981 139.024C99.6381 139.024 100.545 139.251 101.318 139.704C102.091 140.158 102.691 140.784 103.118 141.584C103.571 142.384 103.798 143.331 103.798 144.424C103.798 144.611 103.758 144.851 103.678 145.144C103.598 145.411 103.518 145.611 103.438 145.744L104.718 143.904H91.5181V146.624H107.238C107.238 146.571 107.238 146.451 107.238 146.264C107.265 146.051 107.278 145.851 107.278 145.664C107.278 143.718 106.931 142.038 106.238 140.624C105.545 139.211 104.545 138.131 103.238 137.384C101.958 136.611 100.411 136.224 98.5981 136.224C96.7848 136.224 95.1848 136.624 93.7981 137.424C92.4381 138.224 91.3715 139.344 90.5981 140.784C89.8515 142.224 89.4781 143.904 89.4781 145.824C89.4781 147.718 89.8381 149.384 90.5581 150.824C91.3048 152.264 92.3315 153.398 93.6381 154.224C94.9715 155.024 96.4915 155.424 98.1981 155.424ZM126.856 136.624H123.656V155.024H126.856V136.624ZM132.416 140.144L134.176 137.504C133.696 136.998 133.163 136.664 132.576 136.504C132.016 136.318 131.403 136.224 130.736 136.224C129.883 136.224 129.043 136.558 128.216 137.224C127.39 137.891 126.71 138.798 126.176 139.944C125.67 141.064 125.416 142.358 125.416 143.824H126.856C126.856 142.944 126.936 142.158 127.096 141.464C127.283 140.771 127.603 140.224 128.056 139.824C128.51 139.424 129.136 139.224 129.936 139.224C130.47 139.224 130.91 139.304 131.256 139.464C131.603 139.598 131.99 139.824 132.416 140.144ZM143.901 155.424C145.875 155.424 147.581 155.038 149.021 154.264C150.488 153.464 151.701 152.291 152.661 150.744L150.061 149.104C149.395 150.224 148.581 151.064 147.621 151.624C146.661 152.158 145.555 152.424 144.301 152.424C143.048 152.424 141.981 152.158 141.101 151.624C140.221 151.091 139.555 150.318 139.101 149.304C138.648 148.291 138.421 147.064 138.421 145.624C138.448 144.211 138.688 143.024 139.141 142.064C139.621 141.078 140.288 140.331 141.141 139.824C142.021 139.291 143.075 139.024 144.301 139.024C145.341 139.024 146.248 139.251 147.021 139.704C147.795 140.158 148.395 140.784 148.821 141.584C149.275 142.384 149.501 143.331 149.501 144.424C149.501 144.611 149.461 144.851 149.381 145.144C149.301 145.411 149.221 145.611 149.141 145.744L150.421 143.904H137.221V146.624H152.941C152.941 146.571 152.941 146.451 152.941 146.264C152.968 146.051 152.981 145.851 152.981 145.664C152.981 143.718 152.635 142.038 151.941 140.624C151.248 139.211 150.248 138.131 148.941 137.384C147.661 136.611 146.115 136.224 144.301 136.224C142.488 136.224 140.888 136.624 139.501 137.424C138.141 138.224 137.075 139.344 136.301 140.784C135.555 142.224 135.181 143.904 135.181 145.824C135.181 147.718 135.541 149.384 136.261 150.824C137.008 152.264 138.035 153.398 139.341 154.224C140.675 155.024 142.195 155.424 143.901 155.424ZM169.167 143.824V155.024H172.367V143.424C172.367 141.211 171.794 139.464 170.647 138.184C169.527 136.878 167.994 136.224 166.047 136.224C164.847 136.224 163.781 136.491 162.847 137.024C161.941 137.558 161.181 138.384 160.567 139.504V136.624H157.367V155.024H160.567V143.824C160.567 142.918 160.754 142.118 161.127 141.424C161.527 140.731 162.074 140.198 162.767 139.824C163.487 139.424 164.314 139.224 165.247 139.224C166.527 139.224 167.501 139.611 168.167 140.384C168.834 141.158 169.167 142.304 169.167 143.824ZM175.583 136.624V139.624H184.783V136.624H175.583ZM178.583 130.224V155.024H181.783V130.224H178.583Z" fill="#2F6ED9"/>
</svg>
