<svg width="378" height="348" viewBox="0 0 378 348" fill="none" xmlns="http://www.w3.org/2000/svg">
<rect width="378" height="348" fill="#222222"/>
<path d="M115.657 119.343C112.533 122.467 112.533 127.533 115.657 130.657L117.391 132.391C120.513 135.513 125.574 135.515 128.699 132.396L161.098 100.055C166.14 95.0221 174.75 98.593 174.75 105.717V191C174.75 195.418 178.332 199 182.75 199H185.25C189.668 199 193.25 195.418 193.25 191V105.766C193.25 98.635 201.874 95.0672 206.912 100.114L239.208 132.468C242.332 135.597 247.401 135.599 250.527 132.473L252.343 130.657C255.467 127.533 255.467 122.467 252.343 119.343L189.657 56.6568C186.533 53.5327 181.467 53.5327 178.343 56.6569L115.657 119.343Z" fill="#A88170"/>
<path d="M90.704 242.688C90.704 240.853 92.048 239.936 94.736 239.936C95.888 239.936 98.0853 239.979 101.328 240.064C104.912 240.235 107.621 240.32 109.456 240.32C110.949 240.32 112.763 240.235 114.896 240.064C116.347 239.979 117.264 239.936 117.648 239.936C119.995 240.021 121.979 240.448 123.6 241.216C124.069 241.429 124.453 241.685 124.752 241.984C125.051 242.283 125.2 242.773 125.2 243.456C125.2 244.395 124.901 245.205 124.304 245.888C123.707 246.528 122.981 246.848 122.128 246.848C121.189 246.848 119.824 246.72 118.032 246.464C116.453 246.165 115.067 246.016 113.872 246.016C112.72 246.016 111.845 246.037 111.248 246.08C111.12 247.488 111.056 250.859 111.056 256.192C111.056 262.549 111.248 268.992 111.632 275.52L111.76 277.376C111.76 279.125 110.757 280 108.752 280C107.173 280 106.107 279.637 105.552 278.912C104.997 278.144 104.72 276.992 104.72 275.456C104.72 272.427 104.635 268.651 104.464 264.128C104.293 260.373 104.208 257.707 104.208 256.128C104.208 255.061 104.336 251.797 104.592 246.336L97.104 246.4C94.7147 246.4 93.0507 246.187 92.112 245.76C91.1733 245.291 90.704 244.267 90.704 242.688ZM122.443 266.432C122.443 264.811 122.741 263.189 123.339 261.568C123.936 259.904 124.725 258.389 125.707 257.024C126.688 255.659 128.245 254.549 130.379 253.696C132.512 252.8 134.411 252.352 136.075 252.352C137.781 252.352 139.509 252.587 141.259 253.056C143.051 253.525 144.288 254.251 144.971 255.232C146.549 257.451 147.339 259.627 147.339 261.76C147.339 262.912 147.083 263.893 146.571 264.704C146.101 265.515 145.419 266.389 144.523 267.328C143.797 268.096 142.645 268.608 141.067 268.864C139.531 269.12 137.995 269.248 136.458 269.248C135.477 269.248 134.283 269.163 132.875 268.992C131.467 268.779 130.101 268.523 128.779 268.224C128.864 269.077 129.077 269.909 129.419 270.72C129.76 271.531 130.165 272.149 130.635 272.576C131.488 273.387 132.363 273.899 133.259 274.112C134.197 274.325 135.392 274.432 136.843 274.432C138.379 274.432 139.808 274.176 141.131 273.664C142.197 273.28 143.072 273.088 143.755 273.088C144.565 273.088 145.184 273.344 145.611 273.856C146.037 274.325 146.251 274.944 146.251 275.712C146.251 276.779 145.632 277.653 144.395 278.336C143.157 279.019 141.728 279.531 140.107 279.872C138.528 280.171 137.248 280.32 136.267 280.32C134.261 280.32 132.32 279.957 130.443 279.232C128.565 278.507 127.008 277.483 125.771 276.16C124.747 274.965 123.936 273.536 123.339 271.872C122.741 270.165 122.443 268.352 122.443 266.432ZM136.395 257.792C135.456 257.792 134.517 257.984 133.579 258.368C132.64 258.709 131.872 259.2 131.275 259.84C130.507 260.651 129.973 261.312 129.675 261.824C129.419 262.293 129.248 262.955 129.163 263.808C130.229 264.149 132.448 264.32 135.819 264.32C137.653 264.32 139.061 264.043 140.043 263.488C141.067 262.933 141.579 262.208 141.579 261.312C141.579 260.416 141.024 259.605 139.915 258.88C138.805 258.155 137.632 257.792 136.395 257.792ZM185.903 242.432C185.903 243.2 185.241 244.331 183.919 245.824C182.98 246.891 180.932 249.813 177.775 254.592C175.087 258.645 173.017 261.653 171.567 263.616C171.609 268.181 171.78 271.531 172.079 273.664C172.207 274.944 172.271 275.861 172.271 276.416C172.271 277.824 172.015 278.784 171.503 279.296C171.033 279.765 170.201 280 169.007 280C168.111 280 167.257 279.744 166.447 279.232C165.679 278.677 165.295 278.016 165.295 277.248C165.295 275.029 165.231 270.891 165.103 264.832C165.103 264.533 164.719 263.744 163.951 262.464C163.268 261.269 161.583 258.965 158.895 255.552C156.292 252.181 154.329 249.536 153.007 247.616C151.727 245.653 151.087 244.16 151.087 243.136C151.087 242.24 151.492 241.536 152.303 241.024C153.156 240.469 154.073 240.192 155.055 240.192C156.292 240.192 157.295 240.768 158.062 241.92C158.489 242.517 159.151 243.669 160.047 245.376C160.687 246.613 161.412 247.915 162.223 249.28C163.033 250.645 163.78 251.755 164.463 252.608L166.255 254.784C167.535 256.32 168.175 257.109 168.175 257.152C169.455 255.872 170.607 254.464 171.631 252.928C172.655 251.349 173.892 249.344 175.343 246.912L177.775 242.944L178.863 241.28C179.247 240.768 179.695 240.363 180.207 240.064C180.719 239.765 181.423 239.616 182.319 239.616C183.129 239.616 183.919 239.851 184.687 240.32C185.497 240.789 185.903 241.493 185.903 242.432ZM204.74 263.552C204.868 263.211 205.316 261.973 206.084 259.84C206.895 257.707 207.641 256.085 208.324 254.976C209.433 253.227 210.415 252.352 211.268 252.352C212.463 252.352 213.38 252.587 214.02 253.056C214.66 253.483 214.98 254.101 214.98 254.912C214.98 255.296 214.809 255.829 214.468 256.512C214.169 257.195 213.999 257.6 213.956 257.728C212.249 261.483 210.713 265.515 209.348 269.824L208.004 274.816C207.492 276.437 206.617 277.76 205.38 278.784C204.143 279.765 202.692 280.256 201.028 280.256C199.535 280.256 198.148 279.573 196.868 278.208C196.1 277.013 195.289 275.499 194.436 273.664C193.625 271.829 192.921 270.037 192.324 268.288L190.084 261.568C189.615 260.245 189.231 259.115 188.932 258.176C188.676 257.237 188.548 256.384 188.548 255.616C188.505 254.72 188.761 253.995 189.316 253.44C189.871 252.885 190.639 252.608 191.62 252.608C192.729 252.608 193.519 252.843 193.988 253.312C194.457 253.739 194.884 254.421 195.268 255.36C195.439 256.341 195.908 258.347 196.676 261.376L197.124 263.168C197.508 264.619 197.999 266.091 198.596 267.584C199.193 269.077 199.791 270.507 200.388 271.872C200.303 271.659 200.601 272.363 201.284 273.984C201.711 272.747 202.201 271.232 202.756 269.44L204.74 263.552ZM249.917 279.04C249.362 278.315 248.893 277.525 248.509 276.672C248.125 275.776 247.72 274.709 247.293 273.472C247.208 273.259 246.952 272.619 246.525 271.552C246.141 270.485 245.693 269.568 245.181 268.8C242.493 269.184 240.296 269.376 238.589 269.376C237.65 269.376 236.605 269.355 235.453 269.312C234.344 269.227 233.512 269.184 232.957 269.184C230.824 269.013 229.117 268.928 227.837 268.928C227.325 269.611 226.877 270.336 226.493 271.104C226.152 271.872 225.704 273.024 225.149 274.56C224.381 276.779 223.72 278.357 223.165 279.296C222.781 279.936 222.034 280.256 220.925 280.256C219.986 280.256 219.112 280.064 218.301 279.68C217.533 279.253 217.149 278.677 217.149 277.952C217.49 276.331 218.024 274.624 218.749 272.832C219.517 270.997 220.605 268.565 222.013 265.536L224.573 259.264C225.981 255.68 227.261 252.608 228.413 250.048C229.608 247.488 231.165 244.459 233.085 240.96C233.341 240.448 233.768 240.021 234.365 239.68C234.962 239.296 235.624 239.104 236.349 239.104C237.16 239.104 237.736 239.168 238.077 239.296C238.461 239.381 238.76 239.552 238.973 239.808C239.186 240.021 239.506 240.491 239.933 241.216C241.384 243.477 242.621 245.803 243.645 248.192C244.712 250.581 246.056 253.888 247.677 258.112L249.021 261.504C250.216 264.576 251.24 267.157 252.093 269.248C252.989 271.296 253.97 273.173 255.037 274.88C255.72 275.989 256.061 276.757 256.061 277.184C256.061 278.208 255.741 278.997 255.101 279.552C254.504 280.064 253.714 280.32 252.733 280.32C251.496 280.32 250.557 279.893 249.917 279.04ZM243.325 263.552C242.642 262.101 241.661 259.584 240.381 256C239.058 252.16 237.736 249.109 236.413 246.848C235.602 248.896 234.408 251.541 232.829 254.784C231.762 256.789 230.546 259.691 229.181 263.488C231.912 263.829 234.856 264 238.013 264C240.274 264 242.045 263.851 243.325 263.552ZM282.599 258.112C281.105 260.715 278.695 263.595 275.367 266.752L274.279 267.776C271.591 270.379 269.009 272.619 266.535 274.496C266.833 274.539 267.431 274.56 268.327 274.56L271.911 274.496C272.849 274.496 274.215 274.325 276.007 273.984C277.713 273.643 278.972 273.472 279.783 273.472C281.02 273.472 282.428 273.899 284.007 274.752C284.391 274.923 284.711 275.264 284.967 275.776C285.223 276.245 285.351 276.693 285.351 277.12C285.351 277.675 285.159 278.293 284.775 278.976C284.391 279.659 283.943 280 283.431 280C282.961 280 282.428 279.915 281.831 279.744C281.745 279.701 281.489 279.637 281.063 279.552C280.679 279.467 280.231 279.424 279.719 279.424C278.225 279.424 276.241 279.531 273.767 279.744C270.353 280 267.836 280.128 266.215 280.128C264.167 280.128 262.545 279.872 261.351 279.36C260.199 278.848 259.623 277.888 259.623 276.48C259.623 275.115 260.028 273.899 260.839 272.832C261.692 271.765 262.865 270.571 264.359 269.248C264.999 268.736 265.553 268.245 266.023 267.776C266.919 266.88 268.049 265.856 269.415 264.704C270.908 263.424 272.145 262.293 273.127 261.312C274.151 260.288 274.94 259.307 275.495 258.368C275.153 258.368 274.748 258.389 274.279 258.432C273.852 258.475 273.404 258.517 272.935 258.56C271.484 258.731 270.609 258.816 270.311 258.816C268.561 258.816 266.663 258.688 264.615 258.432C262.865 258.261 261.692 258.027 261.095 257.728C260.497 257.387 260.199 256.704 260.199 255.68C260.199 255.083 260.412 254.528 260.839 254.016C261.265 253.461 261.82 253.12 262.503 252.992C262.673 252.949 263.015 252.928 263.527 252.928C264.124 252.928 265.404 253.013 267.367 253.184C269.415 253.355 270.929 253.44 271.911 253.44C272.508 253.44 273.617 253.397 275.239 253.312C276.519 253.184 277.799 253.12 279.079 253.12C280.188 253.12 281.063 253.205 281.703 253.376C282.172 253.547 282.535 253.867 282.791 254.336C283.089 254.763 283.239 255.211 283.239 255.68C283.239 256.448 283.025 257.259 282.599 258.112Z" fill="#A88170"/>
</svg>
